# xmcd
#
# Track frame offsets:
#	150
#	15422
#	27972
#	47919
#	57368
#	71566
#	84977
#	96319
#	107468
#	120131
#	133037
#	146917
#	167094
#	181573
#	191235
#	202642
#	211012
#	222038
#	237359
#	247975
#
# Disc length: 3644 seconds
#
# Revision: 0
# Processed by: cddbd v1.5.2PL0 Copyright (c) Steve Scherf et al.
# Submitted via: EasyCDDAExtractor 12.0.4.1
#
DISCID=080e3a14
DTITLE=New Kids On The Pops - V.A  - New Kids On The Pops
DYEAR=2009
DGENRE=Pop
TTITLE0=Puff The Magic Dragon
TTITLE1=Yesterday
TTITLE2=You've Got A Friend
TTITLE3=All I Need Is A Family
TTITLE4=Imagine
TTITLE5=Blowin' In The Wind
TTITLE6=Amazing Grace
TTITLE7=I'd Like To Teach The World To Sing
TTITLE8=The Water Is Wide
TTITLE9=The Lion Sleeps Tonight
TTITLE10=Tennessee Waltz
TTITLE11=Bridge Over Troubled Water
TTITLE12=Always On My Mind
TTITLE13=Clementine
TTITLE14=Blueberry Hill
TTITLE15=Home On The Range
TTITLE16=Donna
TTITLE17=Oh Happy Day
TTITLE18=Runaway
TTITLE19=We Are The World
EXTD=
EXTT0=
EXTT1=
EXTT2=
EXTT3=
EXTT4=
EXTT5=
EXTT6=
EXTT7=
EXTT8=
EXTT9=
EXTT10=
EXTT11=
EXTT12=
EXTT13=
EXTT14=
EXTT15=
EXTT16=
EXTT17=
EXTT18=
EXTT19=
PLAYORDER=
